{
	"asset":{
		"generator":"Khronos glTF Blender I/O v5.1.19",
		"version":"2.0"
	},
	"scene":0,
	"scenes":[
		{
			"name":"Scene",
			"nodes":[
				0
			]
		}
	],
	"nodes":[
		{
			"mesh":0,
			"name":"drinkbar.006",
			"scale":[
				0.5469401478767395,
				0.5469401478767395,
				0.5469401478767395
			],
			"translation":[
				0.012055248022079468,
				0,
				0
			]
		}
	],
	"materials":[
		{
			"doubleSided":true,
			"name":"drinkbar.002",
			"pbrMetallicRoughness":{
				"baseColorTexture":{
					"index":0
				},
				"metallicFactor":0,
				"roughnessFactor":0.690034806728363
			}
		}
	],
	"meshes":[
		{
			"name":"Cube.007",
			"primitives":[
				{
					"attributes":{
						"POSITION":0,
						"NORMAL":1,
						"TEXCOORD_0":2
					},
					"indices":3,
					"material":0
				}
			]
		}
	],
	"textures":[
		{
			"sampler":0,
			"source":0
		}
	],
	"images":[
		{
			"mimeType":"image/png",
			"name":"drinkbar_tex",
			"uri":"drinkbar_tex.png"
		}
	],
	"accessors":[
		{
			"bufferView":0,
			"componentType":5126,
			"count":802,
			"max":[
				0.8800004124641418,
				3.162696361541748,
				1.138911485671997
			],
			"min":[
				-0.8800002336502075,
				0.006520867347717285,
				-1.0000003576278687
			],
			"type":"VEC3"
		},
		{
			"bufferView":1,
			"componentType":5126,
			"count":802,
			"type":"VEC3"
		},
		{
			"bufferView":2,
			"componentType":5126,
			"count":802,
			"type":"VEC2"
		},
		{
			"bufferView":3,
			"componentType":5123,
			"count":1956,
			"type":"SCALAR"
		}
	],
	"bufferViews":[
		{
			"buffer":0,
			"byteLength":9624,
			"byteOffset":0,
			"target":34962
		},
		{
			"buffer":0,
			"byteLength":9624,
			"byteOffset":9624,
			"target":34962
		},
		{
			"buffer":0,
			"byteLength":6416,
			"byteOffset":19248,
			"target":34962
		},
		{
			"buffer":0,
			"byteLength":3912,
			"byteOffset":25664,
			"target":34963
		}
	],
	"samplers":[
		{
			"magFilter":9729,
			"minFilter":9987
		}
	],
	"buffers":[
		{
			"byteLength":29576,
			"uri":"DrinkBar.bin"
		}
	]
}
