{
	"asset":{
		"generator":"Khronos glTF Blender I/O v5.1.19",
		"version":"2.0"
	},
	"scene":0,
	"scenes":[
		{
			"name":"Scene",
			"nodes":[
				0
			]
		}
	],
	"nodes":[
		{
			"mesh":0,
			"name":"Window_Round3"
		}
	],
	"materials":[
		{
			"doubleSided":true,
			"name":"White",
			"pbrMetallicRoughness":{
				"baseColorFactor":[
					0.44797539710998535,
					0.443290650844574,
					0.4294084906578064,
					1
				],
				"metallicFactor":0,
				"roughnessFactor":0.5
			}
		},
		{
			"doubleSided":true,
			"name":"Glass"
		}
	],
	"meshes":[
		{
			"name":"Cylinder.044",
			"primitives":[
				{
					"attributes":{
						"POSITION":0,
						"NORMAL":1
					},
					"indices":2,
					"material":0
				},
				{
					"attributes":{
						"POSITION":3,
						"NORMAL":4
					},
					"indices":5,
					"material":1
				}
			]
		}
	],
	"accessors":[
		{
			"bufferView":0,
			"componentType":5126,
			"count":78,
			"max":[
				0.4531972408294678,
				1.5498013496398926,
				0.05627857893705368
			],
			"min":[
				-0.4531953036785126,
				0,
				-0.05627860873937607
			],
			"type":"VEC3"
		},
		{
			"bufferView":1,
			"componentType":5126,
			"count":78,
			"type":"VEC3"
		},
		{
			"bufferView":2,
			"componentType":5123,
			"count":432,
			"type":"SCALAR"
		},
		{
			"bufferView":3,
			"componentType":5126,
			"count":18,
			"max":[
				0.4174116849899292,
				1.5097172260284424,
				0.03687559813261032
			],
			"min":[
				-0.417409747838974,
				0.021751880645751953,
				-0.036875635385513306
			],
			"type":"VEC3"
		},
		{
			"bufferView":4,
			"componentType":5126,
			"count":18,
			"type":"VEC3"
		},
		{
			"bufferView":5,
			"componentType":5123,
			"count":42,
			"type":"SCALAR"
		}
	],
	"bufferViews":[
		{
			"buffer":0,
			"byteLength":936,
			"byteOffset":0,
			"target":34962
		},
		{
			"buffer":0,
			"byteLength":936,
			"byteOffset":936,
			"target":34962
		},
		{
			"buffer":0,
			"byteLength":864,
			"byteOffset":1872,
			"target":34963
		},
		{
			"buffer":0,
			"byteLength":216,
			"byteOffset":2736,
			"target":34962
		},
		{
			"buffer":0,
			"byteLength":216,
			"byteOffset":2952,
			"target":34962
		},
		{
			"buffer":0,
			"byteLength":84,
			"byteOffset":3168,
			"target":34963
		}
	],
	"buffers":[
		{
			"byteLength":3252,
			"uri":"window.bin"
		}
	]
}
