{
	"asset":{
		"generator":"Khronos glTF Blender I/O v5.1.19",
		"version":"2.0"
	},
	"scene":0,
	"scenes":[
		{
			"name":"Scene",
			"nodes":[
				0
			]
		}
	],
	"nodes":[
		{
			"mesh":0,
			"name":"Light_Stand1"
		}
	],
	"materials":[
		{
			"doubleSided":true,
			"name":"LightMetal",
			"pbrMetallicRoughness":{
				"baseColorFactor":[
					0.1733521670103073,
					0.1733521670103073,
					0.1733521670103073,
					1
				],
				"metallicFactor":0,
				"roughnessFactor":0.5
			}
		},
		{
			"doubleSided":true,
			"name":"White",
			"pbrMetallicRoughness":{
				"baseColorFactor":[
					0.44797539710998535,
					0.443290650844574,
					0.4294084906578064,
					1
				],
				"metallicFactor":0,
				"roughnessFactor":0.5
			}
		}
	],
	"meshes":[
		{
			"name":"Cylinder.018",
			"primitives":[
				{
					"attributes":{
						"POSITION":0,
						"NORMAL":1
					},
					"indices":2,
					"material":0
				},
				{
					"attributes":{
						"POSITION":3,
						"NORMAL":4
					},
					"indices":5,
					"material":1
				}
			]
		}
	],
	"accessors":[
		{
			"bufferView":0,
			"componentType":5126,
			"count":66,
			"max":[
				0.3388509154319763,
				2.957819938659668,
				0.3388470411300659
			],
			"min":[
				-0.33884572982788086,
				1.2623083689433656e-09,
				-0.33884960412979126
			],
			"type":"VEC3"
		},
		{
			"bufferView":1,
			"componentType":5126,
			"count":66,
			"type":"VEC3"
		},
		{
			"bufferView":2,
			"componentType":5123,
			"count":246,
			"type":"SCALAR"
		},
		{
			"bufferView":3,
			"componentType":5126,
			"count":100,
			"max":[
				0.3866865634918213,
				2.9937829971313477,
				0.4065823256969452
			],
			"min":[
				-0.3866814076900482,
				1.2623083689433656e-09,
				-0.4065849184989929
			],
			"type":"VEC3"
		},
		{
			"bufferView":4,
			"componentType":5126,
			"count":100,
			"type":"VEC3"
		},
		{
			"bufferView":5,
			"componentType":5123,
			"count":486,
			"type":"SCALAR"
		}
	],
	"bufferViews":[
		{
			"buffer":0,
			"byteLength":792,
			"byteOffset":0,
			"target":34962
		},
		{
			"buffer":0,
			"byteLength":792,
			"byteOffset":792,
			"target":34962
		},
		{
			"buffer":0,
			"byteLength":492,
			"byteOffset":1584,
			"target":34963
		},
		{
			"buffer":0,
			"byteLength":1200,
			"byteOffset":2076,
			"target":34962
		},
		{
			"buffer":0,
			"byteLength":1200,
			"byteOffset":3276,
			"target":34962
		},
		{
			"buffer":0,
			"byteLength":972,
			"byteOffset":4476,
			"target":34963
		}
	],
	"buffers":[
		{
			"byteLength":5448,
			"uri":"Light_Stand.bin"
		}
	]
}
